<svg width="49" height="48" viewBox="0 0 49 48" fill="none" xmlns="http://www.w3.org/2000/svg">
<path d="M6.90938 44.0003H42.0934C42.5334 44.0003 42.8934 43.6403 42.8934 43.2003V39.1203C42.8934 38.6803 42.5334 38.3203 42.0934 38.3203H6.90938C6.46937 38.3203 6.10938 38.6803 6.10938 39.1203V43.2003C6.10938 43.6403 6.46937 44.0003 6.90938 44.0003Z" fill="black"/>
<path d="M6.90938 18.2796H42.0934C42.5334 18.2796 42.8934 17.9276 42.8934 17.4796V13.3996C42.8934 12.9596 42.5334 12.5996 42.0934 12.5996H6.90938C6.46937 12.5996 6.10938 12.9596 6.10938 13.3996V17.4796C6.10938 17.9276 6.46937 18.2796 6.90938 18.2796Z" fill="black"/>
<path d="M38.9959 11L24.8519 4.07995C24.6279 3.97595 24.3719 3.97595 24.1479 4.07995L10.0039 11H38.9959Z" fill="black"/>
<path d="M16.5327 21.2089C16.9727 21.2089 17.3327 20.8489 17.3327 20.4089V19.8809H8.80469V20.4089C8.80469 20.8489 9.15669 21.2089 9.60469 21.2089H10.1887V35.3929H9.60469C9.15669 35.3929 8.80469 35.7529 8.80469 36.1929V36.7209H17.3327V36.1929C17.3327 35.7529 16.9727 35.3929 16.5327 35.3929H15.9487V21.2089H16.5327Z" fill="black"/>
<path d="M27.9624 21.2089C28.4024 21.2089 28.7624 20.8489 28.7624 20.4089V19.8809H20.2344V20.4089C20.2344 20.8489 20.5944 21.2089 21.0344 21.2089H21.6184V35.3929H21.0344C20.5944 35.3929 20.2344 35.7529 20.2344 36.1929V36.7209H28.7624V36.1929C28.7624 35.7529 28.4024 35.3929 27.9624 35.3929H27.3784V21.2089H27.9624Z" fill="black"/>
<path d="M39.396 21.2089C39.836 21.2089 40.196 20.8489 40.196 20.4089V19.8809H31.668V20.4089C31.668 20.8489 32.028 21.2089 32.468 21.2089H33.052V35.3929H32.468C32.028 35.3929 31.668 35.7529 31.668 36.1929V36.7209H40.196V36.1929C40.196 35.7529 39.836 35.3929 39.396 35.3929H38.812V21.2089H39.396Z" fill="black"/>
</svg>
