<svg width="49" height="48" viewBox="0 0 49 48" fill="none" xmlns="http://www.w3.org/2000/svg">
<g id="Icon">
<path id="Vector" d="M35.3698 22.1122L26.3057 13.0482C26.0097 12.7522 25.4738 12.7522 25.1778 13.0482L21.5777 16.6482C21.2657 16.9602 21.2657 17.4722 21.5777 17.7842L30.6417 26.8402C30.7857 26.9922 30.9938 27.0802 31.2018 27.0802C31.4178 27.0802 31.6177 26.9922 31.7697 26.8402L35.3698 23.2482C35.6817 22.9282 35.6817 22.4242 35.3698 22.1122Z" fill="black"/>
<path id="Vector_2" d="M44.2421 12.9592C44.3861 12.8072 44.4741 12.6072 44.4741 12.3912C44.4741 12.1832 44.3861 11.9832 44.2421 11.8312L36.5941 4.18322C36.2741 3.87122 35.7701 3.87122 35.4581 4.18322L27.5781 12.0632L36.3541 20.8392L44.2421 12.9592Z" fill="black"/>
<path id="Vector_3" d="M32.3572 43.1438C32.3572 42.7038 31.9972 42.3438 31.5572 42.3438H21.9172C21.4772 42.3438 21.1172 42.7038 21.1172 43.1438C21.1172 43.5838 21.4772 43.9438 21.9172 43.9438H31.5572C31.9972 43.9438 32.3572 43.5838 32.3572 43.1438Z" fill="black"/>
<path id="Vector_4" d="M17.4346 32.6808C17.8986 32.2088 17.8986 31.4488 17.4346 30.9848C17.2026 30.7528 16.8906 30.6328 16.5866 30.6328C16.2826 30.6328 15.9706 30.7528 15.7386 30.9848C15.2746 31.4488 15.2746 32.2168 15.7386 32.6808C16.2026 33.1528 16.9626 33.1528 17.4346 32.6808Z" fill="black"/>
<path id="Vector_5" d="M14.1393 33.1601C13.5633 32.0961 13.7153 30.7521 14.6113 29.8561C15.6993 28.7681 17.4753 28.7681 18.5713 29.8561C19.6593 30.9441 19.6593 32.7201 18.5713 33.8161C18.0273 34.3601 17.3073 34.6321 16.5953 34.6321C16.1393 34.6321 15.6913 34.5121 15.2753 34.2881L5.98725 43.7041C6.49125 43.4721 6.99525 43.2481 7.49125 43.0481C7.47525 43.1201 7.45125 43.1841 7.45125 43.2561C7.45925 43.6961 7.81125 44.0481 8.25125 44.0481H8.25925L18.5953 43.9441C19.0353 43.9361 19.3953 43.5761 19.3873 43.1361C19.3793 42.6961 19.0273 42.3441 18.5873 42.3441H18.5793L9.09925 42.4401C16.0913 40.0001 21.8673 40.4961 21.9393 40.4961C22.3393 40.5281 22.6913 40.2881 22.7873 39.9041C24.0913 34.9681 26.9953 29.9521 28.7553 27.2001L21.2113 19.6641C18.4593 21.4161 13.4513 24.3201 8.51525 25.6241C8.13925 25.7281 7.88325 26.0881 7.92325 26.4721C7.93125 26.5521 8.61925 34.3441 4.56325 42.7921C4.54725 42.8321 4.53925 42.8721 4.53125 42.9121L14.1393 33.1601Z" fill="black"/>
</g>
</svg>
