<svg width="48" height="48" viewBox="0 0 48 48" fill="none" xmlns="http://www.w3.org/2000/svg">
<g id="Icon">
<path id="Vector" d="M16.3203 21.9836H31.1923C30.4883 19.8076 28.8483 18.0396 26.7523 17.1676C27.9683 16.2556 28.7603 14.8076 28.7603 13.1756C28.7603 10.4236 26.5203 8.18359 23.7603 8.18359C21.0083 8.18359 18.7683 10.4236 18.7683 13.1756C18.7683 14.8076 19.5603 16.2556 20.7763 17.1676C18.6643 18.0316 17.0243 19.7996 16.3203 21.9836Z" fill="black"/>
<path id="Vector_2" d="M32.4464 18.824C32.1744 18.952 31.9104 19.104 31.6624 19.272C32.1024 19.952 32.4624 20.688 32.7184 21.488L32.8784 21.984H40.7424C40.1504 20.592 39.0624 19.472 37.7024 18.824C38.5344 18.088 39.0704 17.032 39.0704 15.832C39.0704 13.624 37.2784 11.832 35.0704 11.832C32.8624 11.832 31.0704 13.624 31.0704 15.832C31.0624 17.024 31.6064 18.088 32.4464 18.824Z" fill="black"/>
<path id="Vector_3" d="M14.801 21.488C15.057 20.688 15.417 19.952 15.857 19.272C15.609 19.104 15.345 18.952 15.073 18.824C15.905 18.088 16.449 17.024 16.449 15.832C16.449 13.624 14.657 11.832 12.449 11.832C10.241 11.832 8.44897 13.624 8.44897 15.832C8.44897 17.032 8.98497 18.088 9.82497 18.824C8.46497 19.472 7.37697 20.592 6.79297 21.984H14.649L14.801 21.488Z" fill="black"/>
<path id="Vector_4" d="M4.8 38.216C4.36 38.216 4 38.576 4 39.016C4 39.456 4.36 39.816 4.8 39.816H6.272H6.28H41.24H41.248H43.2C43.64 39.816 44 39.456 44 39.016C44 38.576 43.64 38.216 43.2 38.216H42.032V25.184H43.2C43.64 25.184 44 24.824 44 24.384C44 23.944 43.64 23.584 43.2 23.584H41.248C41.24 23.584 41.24 23.584 41.232 23.584H6.272C6.264 23.584 6.264 23.584 6.256 23.584H4.8C4.36 23.584 4 23.944 4 24.384C4 24.824 4.36 25.184 4.8 25.184H5.472V38.216H4.8ZM10.928 33.552H36.592C37.032 33.552 37.392 33.912 37.392 34.352C37.392 34.792 37.032 35.152 36.592 35.152H10.928C10.488 35.152 10.128 34.792 10.128 34.352C10.128 33.912 10.488 33.552 10.928 33.552ZM10.128 29.048C10.128 28.608 10.488 28.248 10.928 28.248H36.592C37.032 28.248 37.392 28.608 37.392 29.048C37.392 29.488 37.032 29.848 36.592 29.848H10.928C10.488 29.848 10.128 29.488 10.128 29.048Z" fill="black"/>
</g>
</svg>
