<svg width="30" height="36" viewBox="0 0 30 36" fill="none" xmlns="http://www.w3.org/2000/svg">
<path id="Subtract" fill-rule="evenodd" clip-rule="evenodd" d="M15.0002 36C15.0002 36 29.7275 26.1818 29.7275 14.7273C29.7275 10.8214 28.1759 7.07542 25.414 4.31352C22.6521 1.55162 18.9061 0 15.0002 0C11.0943 0 7.34837 1.55162 4.58647 4.31352C1.82457 7.07542 0.272949 10.8214 0.272949 14.7273C0.272949 26.1818 15.0002 36 15.0002 36ZM19.9093 14.7273C19.9093 17.4385 17.7114 19.6364 15.0002 19.6364C12.289 19.6364 10.0911 17.4385 10.0911 14.7273C10.0911 12.0161 12.289 9.81818 15.0002 9.81818C17.7114 9.81818 19.9093 12.0161 19.9093 14.7273Z" fill="#604B33"/>
</svg>
