<svg width="84" height="84" viewBox="0 0 84 84" fill="none" xmlns="http://www.w3.org/2000/svg">
<rect width="84" height="84" rx="42" fill="#604B33"/>
<path d="M18.5432 68.6671H65.4552C66.0419 68.6671 66.5219 68.1871 66.5219 67.6004V62.1604C66.5219 61.5738 66.0419 61.0938 65.4552 61.0938H18.5432C17.9566 61.0938 17.4766 61.5738 17.4766 62.1604V67.6004C17.4766 68.1871 17.9566 68.6671 18.5432 68.6671Z" fill="white"/>
<path d="M18.5432 34.3722H65.4552C66.0419 34.3722 66.5219 33.9028 66.5219 33.3055V27.8655C66.5219 27.2788 66.0419 26.7988 65.4552 26.7988H18.5432C17.9566 26.7988 17.4766 27.2788 17.4766 27.8655V33.3055C17.4766 33.9028 17.9566 34.3722 18.5432 34.3722Z" fill="white"/>
<path d="M61.328 24.6666L42.4693 15.4399C42.1707 15.3013 41.8293 15.3013 41.5307 15.4399L22.672 24.6666H61.328Z" fill="white"/>
<path d="M31.3743 38.2765C31.961 38.2765 32.441 37.7965 32.441 37.2099V36.5059H21.0703V37.2099C21.0703 37.7965 21.5396 38.2765 22.137 38.2765H22.9156V57.1885H22.137C21.5396 57.1885 21.0703 57.6685 21.0703 58.2552V58.9592H32.441V58.2552C32.441 57.6685 31.961 57.1885 31.3743 57.1885H30.5956V38.2765H31.3743Z" fill="white"/>
<path d="M46.6204 38.2765C47.2071 38.2765 47.6871 37.7965 47.6871 37.2099V36.5059H36.3164V37.2099C36.3164 37.7965 36.7964 38.2765 37.3831 38.2765H38.1617V57.1885H37.3831C36.7964 57.1885 36.3164 57.6685 36.3164 58.2552V58.9592H47.6871V58.2552C47.6871 57.6685 47.2071 57.1885 46.6204 57.1885H45.8417V38.2765H46.6204Z" fill="white"/>
<path d="M61.8626 38.2765C62.4493 38.2765 62.9293 37.7965 62.9293 37.2099V36.5059H51.5586V37.2099C51.5586 37.7965 52.0386 38.2765 52.6253 38.2765H53.4039V57.1885H52.6253C52.0386 57.1885 51.5586 57.6685 51.5586 58.2552V58.9592H62.9293V58.2552C62.9293 57.6685 62.4493 57.1885 61.8626 57.1885H61.0839V38.2765H61.8626Z" fill="white"/>
</svg>
