<svg width="84" height="84" viewBox="0 0 84 84" fill="none" xmlns="http://www.w3.org/2000/svg">
<rect width="84" height="84" rx="42" fill="#604B33"/>
<path d="M55.5872 39.6407L44.2572 28.3107C43.8872 27.9407 43.2172 27.9407 42.8472 28.3107L38.3472 32.8107C37.9572 33.2007 37.9572 33.8407 38.3472 34.2307L49.6772 45.5507C49.8572 45.7407 50.1172 45.8507 50.3772 45.8507C50.6472 45.8507 50.8972 45.7407 51.0872 45.5507L55.5872 41.0607C55.9772 40.6607 55.9772 40.0307 55.5872 39.6407Z" fill="white"/>
<path d="M66.6816 28.2C66.8616 28.01 66.9716 27.76 66.9716 27.49C66.9716 27.23 66.8616 26.98 66.6816 26.79L57.1216 17.23C56.7216 16.84 56.0916 16.84 55.7016 17.23L45.8516 27.08L56.8216 38.05L66.6816 28.2Z" fill="white"/>
<path d="M51.8195 65.9297C51.8195 65.3797 51.3695 64.9297 50.8195 64.9297H38.7695C38.2195 64.9297 37.7695 65.3797 37.7695 65.9297C37.7695 66.4797 38.2195 66.9297 38.7695 66.9297H50.8195C51.3695 66.9297 51.8195 66.4797 51.8195 65.9297Z" fill="white"/>
<path d="M33.1683 52.8491C33.7483 52.2591 33.7483 51.3091 33.1683 50.7291C32.8783 50.4391 32.4883 50.2891 32.1083 50.2891C31.7283 50.2891 31.3383 50.4391 31.0483 50.7291C30.4683 51.3091 30.4683 52.2691 31.0483 52.8491C31.6283 53.4391 32.5783 53.4391 33.1683 52.8491Z" fill="white"/>
<path d="M29.0491 53.4501C28.3291 52.1201 28.5191 50.4401 29.6391 49.3201C30.9991 47.9601 33.2191 47.9601 34.5891 49.3201C35.9491 50.6801 35.9491 52.9001 34.5891 54.2701C33.9091 54.9501 33.0091 55.2901 32.1191 55.2901C31.5491 55.2901 30.9891 55.1401 30.4691 54.8601L18.8591 66.6301C19.4891 66.3401 20.1191 66.0601 20.7391 65.8101C20.7191 65.9001 20.6891 65.9801 20.6891 66.0701C20.6991 66.6201 21.1391 67.0601 21.6891 67.0601H21.6991L34.6191 66.9301C35.1691 66.9201 35.6191 66.4701 35.6091 65.9201C35.5991 65.3701 35.1591 64.9301 34.6091 64.9301H34.5991L22.7491 65.0501C31.4891 62.0001 38.7091 62.6201 38.7991 62.6201C39.2991 62.6601 39.7391 62.3601 39.8591 61.8801C41.4891 55.7101 45.1191 49.4401 47.3191 46.0001L37.8891 36.5801C34.4491 38.7701 28.1891 42.4001 22.0191 44.0301C21.5491 44.1601 21.2291 44.6101 21.2791 45.0901C21.2891 45.1901 22.1491 54.9301 17.0791 65.4901C17.0591 65.5401 17.0491 65.5901 17.0391 65.6401L29.0491 53.4501Z" fill="white"/>
</svg>
