<svg width="49" height="48" viewBox="0 0 49 48" fill="none" xmlns="http://www.w3.org/2000/svg">
<g id="Icon">
<path id="Vector" d="M33.2208 19.5684L30.9648 23.8644H35.4768L33.2208 19.5684Z" fill="black"/>
<path id="Vector_2" d="M15.781 27.4408C17.037 27.4408 18.101 26.6088 18.445 25.4648H13.125C13.469 26.6088 14.533 27.4408 15.781 27.4408Z" fill="black"/>
<path id="Vector_3" d="M33.2185 27.4408C34.4745 27.4408 35.5385 26.6088 35.8825 25.4648H30.5625C30.8985 26.6088 31.9625 27.4408 33.2185 27.4408Z" fill="black"/>
<path id="Vector_4" d="M13.5312 23.8644H18.0352L15.7792 19.5684L13.5312 23.8644Z" fill="black"/>
<path id="Vector_5" d="M41.2272 12.424C32.1392 11.728 25.1552 4.328 25.0832 4.256C24.9312 4.088 24.7232 4 24.4992 4C24.2752 4 24.0672 4.088 23.9152 4.256C23.8432 4.328 16.8832 11.728 7.77116 12.424C7.35516 12.456 7.03516 12.808 7.03516 13.224V19.232C7.03516 27.456 10.4672 34.952 16.4432 39.808C18.8672 41.776 21.4992 43.168 24.2832 43.968C24.3552 43.992 24.4272 44 24.4992 44C24.5712 44 24.6512 43.992 24.7232 43.968C27.4992 43.168 30.1312 41.776 32.5552 39.808C38.5312 34.952 41.9632 27.456 41.9632 19.232V13.224C41.9632 12.808 41.6432 12.456 41.2272 12.424ZM20.1632 24.664C20.1632 24.656 20.1632 24.656 20.1632 24.648C20.1552 24.656 20.1632 24.664 20.1632 24.664ZM37.5952 24.68V24.696C37.5792 27.096 35.6192 29.04 33.2192 29.04C30.8192 29.04 28.8592 27.096 28.8432 24.696C28.8432 24.688 28.8432 24.688 28.8432 24.68C28.8432 24.664 28.8432 24.656 28.8432 24.64C28.8432 24.552 28.8672 24.472 28.8912 24.392C28.8992 24.368 28.9072 24.352 28.9152 24.328C28.9232 24.312 28.9232 24.304 28.9312 24.288L31.8912 18.648H25.2992V30.64H27.5392C27.9792 30.64 28.3392 31 28.3392 31.44C28.3392 31.88 27.9792 32.24 27.5392 32.24H24.4992H21.4592C21.0192 32.24 20.6592 31.88 20.6592 31.44C20.6592 31 21.0192 30.64 21.4592 30.64H23.6992V18.648H17.1072L20.0672 24.288C20.0752 24.304 20.0752 24.312 20.0832 24.328C20.0912 24.344 20.0992 24.368 20.1072 24.392C20.1392 24.472 20.1552 24.552 20.1552 24.64V24.68V24.696C20.1392 27.096 18.1792 29.04 15.7792 29.04C13.3792 29.04 11.4192 27.096 11.4032 24.696C11.4032 24.688 11.4032 24.688 11.4032 24.68C11.4032 24.664 11.4032 24.656 11.4032 24.64C11.4032 24.552 11.4272 24.472 11.4512 24.392C11.4592 24.368 11.4672 24.352 11.4752 24.328C11.4832 24.312 11.4832 24.304 11.4912 24.288L15.0672 17.472C15.0992 17.408 15.1472 17.352 15.1952 17.296C15.3392 17.144 15.5472 17.04 15.7712 17.04H23.6992V15.784C23.6992 15.344 24.0592 14.984 24.4992 14.984C24.9392 14.984 25.2992 15.344 25.2992 15.784V17.04H33.2192C33.4512 17.04 33.6592 17.144 33.8112 17.312C33.8592 17.36 33.8992 17.408 33.9312 17.472L37.5072 24.288C37.5152 24.304 37.5152 24.312 37.5232 24.328C37.5312 24.344 37.5392 24.368 37.5472 24.392C37.5792 24.472 37.5952 24.552 37.5952 24.64C37.5952 24.648 37.6032 24.656 37.6032 24.664C37.5952 24.672 37.5952 24.68 37.5952 24.68Z" fill="black"/>
<path id="Vector_6" d="M37.5978 24.6806C37.5978 24.6726 37.5978 24.6646 37.5978 24.6646C37.5978 24.6566 37.5898 24.6486 37.5898 24.6406C37.5978 24.6566 37.5978 24.6726 37.5978 24.6806Z" fill="black"/>
</g>
</svg>
