<svg width="48" height="48" viewBox="0 0 48 48" fill="none" xmlns="http://www.w3.org/2000/svg">
<g id="Icon">
<path id="Vector" d="M25.9931 21.5927L24.0011 17.5527L22.0091 21.5927C21.8891 21.8327 21.6651 21.9927 21.4091 22.0327L16.9531 22.6807L20.1771 25.8247C20.3691 26.0087 20.4491 26.2727 20.4091 26.5367L19.6491 30.9767L23.6331 28.8807C23.7531 28.8167 23.8811 28.7927 24.0011 28.7927C24.1291 28.7927 24.2571 28.8247 24.3771 28.8807L28.3611 30.9767L27.6011 26.5367C27.5611 26.2807 27.6411 26.0087 27.8331 25.8247L31.0571 22.6807L26.6011 22.0327C26.3371 21.9927 26.1131 21.8327 25.9931 21.5927Z" fill="black"/>
<path id="Vector_2" d="M17.8468 33.0234C17.4948 33.0234 17.2148 33.3034 17.2148 33.6554C17.2148 34.0074 17.4948 34.2874 17.8468 34.2874C18.1988 34.2874 18.4788 34.0074 18.4788 33.6554C18.4788 33.3114 18.1988 33.0234 17.8468 33.0234Z" fill="black"/>
<path id="Vector_3" d="M13.8468 21.1113C13.4948 21.1113 13.2148 21.3913 13.2148 21.7433C13.2148 22.0953 13.4948 22.3753 13.8468 22.3753C14.1988 22.3753 14.4788 22.0953 14.4788 21.7433C14.4788 21.3913 14.1988 21.1113 13.8468 21.1113Z" fill="black"/>
<path id="Vector_4" d="M29.6395 34.0072C29.7515 34.1752 29.9355 34.2952 30.1515 34.2952C30.3275 34.2952 30.4875 34.2232 30.5995 34.1112C30.7115 33.9992 30.7835 33.8393 30.7835 33.6633C30.7835 33.4873 30.7115 33.3272 30.5995 33.2152C30.4875 33.1032 30.3275 33.0312 30.1515 33.0312C29.9355 33.0312 29.7515 33.1513 29.6395 33.3193C29.5675 33.4233 29.5195 33.5353 29.5195 33.6633C29.5195 33.7913 29.5675 33.9032 29.6395 34.0072Z" fill="black"/>
<path id="Vector_5" d="M43.9847 12.8395C44.0247 12.6075 43.9687 12.3755 43.8247 12.1915L37.8967 4.75952C37.6167 4.41552 37.1207 4.35952 36.7687 4.63152C34.0727 6.76752 31.5367 7.66352 29.2167 7.29552C26.2967 6.83152 24.6807 4.46352 24.6647 4.43952C24.3687 3.99152 23.6247 3.99152 23.3287 4.43952C23.3127 4.46352 21.7367 6.82352 18.8007 7.29552C16.4807 7.66352 13.9287 6.76752 11.2247 4.63152C10.8807 4.35952 10.3767 4.41552 10.1047 4.75952L4.16867 12.1915C4.02467 12.3755 3.96867 12.6075 4.00867 12.8395C4.05667 13.0635 4.19267 13.2635 4.39267 13.3835C4.44067 13.4075 8.93667 16.1195 8.52067 20.7195C8.44867 21.4955 8.18467 22.4475 7.88067 23.5515C7.04067 26.5915 5.88867 30.7595 8.18467 34.7515C10.4487 38.7035 15.5607 41.6795 23.7927 43.8635C23.8567 43.8875 23.9287 43.8955 24.0007 43.8955C24.0647 43.8955 24.1367 43.8875 24.2007 43.8635C32.4407 41.6795 37.5447 38.7035 39.8087 34.7515C42.1047 30.7595 40.9527 26.5915 40.1127 23.5515C39.8087 22.4475 39.5447 21.4955 39.4807 20.7195C39.0567 16.1195 43.5607 13.4075 43.6007 13.3835C43.8087 13.2635 43.9527 13.0635 43.9847 12.8395ZM34.1527 23.9755C33.5687 23.9755 33.0327 23.7435 32.6327 23.3675L29.2407 26.6715L30.0567 31.4395C30.0887 31.4395 30.1127 31.4315 30.1447 31.4315C31.3767 31.4315 32.3767 32.4315 32.3767 33.6635C32.3767 34.8955 31.3767 35.8955 30.1447 35.8955C28.9127 35.8955 27.9127 34.8955 27.9127 33.6635C27.9127 33.3115 28.0007 32.9755 28.1527 32.6795L24.0007 30.4795L19.8407 32.6635C19.9927 32.9595 20.0807 33.2955 20.0807 33.6475C20.0807 34.8795 19.0807 35.8795 17.8487 35.8795C16.6167 35.8795 15.6167 34.8795 15.6167 33.6475C15.6167 32.4155 16.6167 31.4155 17.8487 31.4155C17.8807 31.4155 17.9127 31.4235 17.9367 31.4235L18.7527 26.6555L15.3687 23.3515C14.9687 23.7275 14.4407 23.9595 13.8487 23.9595C12.6167 23.9595 11.6167 22.9595 11.6167 21.7275C11.6167 20.4955 12.6167 19.4955 13.8487 19.4955C14.8887 19.4955 15.7607 20.2155 16.0087 21.1835L20.7607 20.4955L22.8727 16.2155C22.2167 15.8235 21.7687 15.1195 21.7687 14.3035C21.7687 13.0715 22.7687 12.0715 24.0007 12.0715C25.2327 12.0715 26.2327 13.0715 26.2327 14.3035C26.2327 15.1195 25.7847 15.8315 25.1287 16.2155L27.2407 20.4955L32.0007 21.1995C32.2487 20.2315 33.1127 19.5115 34.1607 19.5115C35.3927 19.5115 36.3927 20.5115 36.3927 21.7435C36.3847 22.9755 35.3847 23.9755 34.1527 23.9755Z" fill="black"/>
<path id="Vector_6" d="M23.9992 14.9515C24.3512 14.9515 24.6312 14.6635 24.6312 14.3195C24.6312 13.9675 24.3512 13.6875 23.9992 13.6875C23.6472 13.6875 23.3672 13.9755 23.3672 14.3195C23.3672 14.6635 23.6552 14.9515 23.9992 14.9515Z" fill="black"/>
<path id="Vector_7" d="M34.5033 21.2313C34.3993 21.1593 34.2873 21.1113 34.1593 21.1113C34.0313 21.1113 33.9113 21.1593 33.8153 21.2313C33.6473 21.3433 33.5273 21.5273 33.5273 21.7433C33.5273 21.9593 33.6473 22.1433 33.8153 22.2553C33.9193 22.3273 34.0313 22.3753 34.1593 22.3753C34.2873 22.3753 34.4073 22.3273 34.5033 22.2553C34.6713 22.1433 34.7913 21.9593 34.7913 21.7433C34.7833 21.5273 34.6713 21.3433 34.5033 21.2313Z" fill="black"/>
</g>
</svg>
