<svg width="48" height="48" viewBox="0 0 48 48" fill="none" xmlns="http://www.w3.org/2000/svg">
<g id="Icon">
<path id="Vector" d="M43.9671 24.8008H34.6551C34.6071 27.5448 34.3351 30.1208 33.8711 32.4728H42.1031C43.2071 30.1288 43.8551 27.5288 43.9671 24.8008Z" fill="black"/>
<path id="Vector_2" d="M28.84 4.59204C30.872 6.58404 32.504 9.84804 33.52 13.928H41.264C38.576 9.34404 34.12 5.91204 28.84 4.59204Z" fill="black"/>
<path id="Vector_3" d="M42.1031 15.5273H33.8711C34.3431 17.8793 34.6151 20.4553 34.6551 23.1993H43.9591C43.8551 20.4633 43.2071 17.8713 42.1031 15.5273Z" fill="black"/>
<path id="Vector_4" d="M41.2558 34.0723H33.5198C32.5038 38.1523 30.8798 41.4083 28.8398 43.4083C34.1198 42.0883 38.5678 38.6563 41.2558 34.0723Z" fill="black"/>
<path id="Vector_5" d="M4.03125 23.1993H13.3433C13.3913 20.4553 13.6633 17.8793 14.1273 15.5273H5.89525C4.79125 17.8713 4.14325 20.4633 4.03125 23.1993Z" fill="black"/>
<path id="Vector_6" d="M5.89525 32.4728H14.1353C13.6633 30.1208 13.3913 27.5448 13.3513 24.8008H4.03125C4.14325 27.5368 4.79125 30.1288 5.89525 32.4728Z" fill="black"/>
<path id="Vector_7" d="M6.74219 34.0723C9.43019 38.6563 13.8782 42.0883 19.1582 43.4083C17.1262 41.4163 15.5022 38.1523 14.4862 34.0723H6.74219Z" fill="black"/>
<path id="Vector_8" d="M6.74219 13.9278H14.4862C15.5022 9.8478 17.1262 6.5918 19.1582 4.5918C13.8782 5.9118 9.43019 9.3438 6.74219 13.9278Z" fill="black"/>
<path id="Vector_9" d="M16.1367 34.0723C17.6887 40.0483 20.5927 44.0003 24.0007 44.0003C27.4087 44.0003 30.3207 40.0483 31.8727 34.0723H16.1367Z" fill="black"/>
<path id="Vector_10" d="M24.0007 4C20.5927 4 17.6887 7.952 16.1367 13.928H31.8727C30.3207 7.952 27.4087 4 24.0007 4Z" fill="black"/>
<path id="Vector_11" d="M32.2493 15.5273H15.7613C15.2813 17.8633 14.9933 20.4473 14.9453 23.1993H33.0653C33.0173 20.4473 32.7293 17.8633 32.2493 15.5273Z" fill="black"/>
<path id="Vector_12" d="M15.7613 32.4728H32.2493C32.7293 30.1368 33.0173 27.5528 33.0653 24.8008H14.9453C14.9933 27.5528 15.2813 30.1368 15.7613 32.4728Z" fill="black"/>
</g>
</svg>
