<svg width="38" height="30" viewBox="0 0 38 30" fill="none" xmlns="http://www.w3.org/2000/svg">
<path fill-rule="evenodd" clip-rule="evenodd" d="M33.3598 0.559973L4.55995 0.640127C3.07987 0.644246 1.80348 1.55302 1.25559 2.8387C1.44232 2.8766 1.62455 2.95241 1.7909 3.06816L18.9985 15.0423L36.1392 2.97256C36.3058 2.85528 36.4886 2.77827 36.6761 2.73953C36.121 1.45723 34.8397 0.555854 33.3598 0.559973ZM36.9747 5.90658L19.8325 17.9774C19.3376 18.3258 18.6777 18.3277 18.1809 17.982L0.974875 6.00899L1.0301 25.85C1.03561 27.83 2.66011 29.4455 4.6401 29.44L33.44 29.3599C35.42 29.3543 37.0355 27.7298 37.03 25.7499L36.9747 5.90658Z" fill="#604B33"/>
</svg>
