<svg width="48" height="48" viewBox="0 0 48 48" fill="none" xmlns="http://www.w3.org/2000/svg">
<g id="Icon">
<path id="Vector" d="M23.9981 23.0566C22.2461 23.0566 20.7821 24.2886 20.4141 25.9286H27.5821C27.2221 24.2886 25.7501 23.0566 23.9981 23.0566Z" fill="black"/>
<path id="Vector_2" d="M24.0013 21.4558C25.2253 21.4558 26.2253 20.4558 26.2253 19.2318C26.2253 18.0078 25.2253 17.0078 24.0013 17.0078C22.7773 17.0078 21.7773 18.0078 21.7773 19.2318C21.7773 20.4558 22.7773 21.4558 24.0013 21.4558Z" fill="black"/>
<path id="Vector_3" d="M4 43.2C4 43.648 4.36 44 4.8 44H43.2C43.648 44 44 43.648 44 43.2V11.24H4V43.2ZM20.176 19.232C20.176 17.12 21.896 15.408 24 15.408C26.112 15.408 27.824 17.128 27.824 19.232C27.824 20.376 27.304 21.392 26.512 22.096C28.152 22.992 29.272 24.728 29.272 26.728C29.272 27.168 28.912 27.528 28.472 27.528H19.528C19.088 27.528 18.728 27.168 18.728 26.728C18.728 24.728 19.848 22.992 21.488 22.096C20.696 21.392 20.176 20.376 20.176 19.232ZM10.28 31.288H37.728C38.168 31.288 38.528 31.648 38.528 32.088C38.528 32.528 38.168 32.888 37.728 32.888H10.28C9.84 32.888 9.48 32.528 9.48 32.088C9.48 31.64 9.84 31.288 10.28 31.288ZM10.28 36.64H37.728C38.168 36.64 38.528 37 38.528 37.44C38.528 37.88 38.168 38.24 37.728 38.24H10.28C9.84 38.24 9.48 37.88 9.48 37.44C9.48 36.992 9.84 36.64 10.28 36.64Z" fill="black"/>
<path id="Vector_4" d="M43.2 4H4.8C4.36 4 4 4.36 4 4.8V9.64H44V4.8C44 4.36 43.648 4 43.2 4ZM9 7.384C8.928 7.464 8.84 7.52 8.744 7.56C8.64 7.6 8.544 7.624 8.432 7.624C8.328 7.624 8.224 7.6 8.128 7.56C8.032 7.52 7.944 7.464 7.864 7.384C7.792 7.312 7.736 7.224 7.696 7.128C7.656 7.032 7.632 6.928 7.632 6.824C7.632 6.616 7.72 6.408 7.864 6.256C7.944 6.184 8.032 6.128 8.128 6.088C8.272 6.024 8.432 6.008 8.592 6.04C8.64 6.048 8.688 6.064 8.736 6.088C8.784 6.104 8.832 6.128 8.88 6.16C8.92 6.184 8.96 6.224 9 6.256C9.152 6.408 9.232 6.608 9.232 6.824C9.232 7.032 9.152 7.24 9 7.384ZM11.832 7.392C11.68 7.536 11.48 7.624 11.264 7.624C11.16 7.624 11.056 7.6 10.96 7.56C10.864 7.52 10.776 7.464 10.696 7.392C10.544 7.24 10.464 7.04 10.464 6.824C10.464 6.616 10.552 6.408 10.696 6.256C10.776 6.184 10.856 6.128 10.96 6.088C11.256 5.96 11.608 6.032 11.832 6.256C11.976 6.408 12.064 6.616 12.064 6.824C12.064 7.04 11.984 7.24 11.832 7.392ZM14.832 7.128C14.792 7.224 14.736 7.312 14.664 7.392C14.512 7.544 14.312 7.624 14.096 7.624C13.88 7.624 13.68 7.544 13.528 7.392C13.456 7.312 13.4 7.224 13.352 7.128C13.312 7.032 13.296 6.928 13.296 6.824C13.296 6.72 13.312 6.616 13.36 6.52C13.4 6.416 13.456 6.336 13.528 6.256C13.568 6.224 13.608 6.184 13.648 6.16C13.696 6.128 13.744 6.104 13.792 6.088C13.84 6.064 13.888 6.048 13.936 6.04C14.2 5.984 14.472 6.072 14.664 6.256C14.736 6.336 14.792 6.416 14.832 6.52C14.872 6.616 14.896 6.72 14.896 6.824C14.896 6.928 14.872 7.032 14.832 7.128Z" fill="black"/>
</g>
</svg>
