<svg width="84" height="84" viewBox="0 0 84 84" fill="none" xmlns="http://www.w3.org/2000/svg">
<rect width="84" height="84" rx="42" fill="#604B33"/>
<path d="M44.8998 38.4905C43.5998 38.2805 42.6198 37.6205 41.9998 37.0605C41.3698 37.6305 40.3998 38.2805 39.0998 38.4905C37.5198 38.7405 35.8698 38.3005 34.1798 37.1705L31.8398 40.1005C32.8698 40.9905 34.3698 42.7405 34.1398 45.2605C34.0898 45.8605 33.8998 46.5305 33.7098 47.2305C33.2198 48.9905 32.6698 50.9805 33.7498 52.8605C34.8698 54.8205 37.6498 56.4105 42.0098 57.6005C46.3698 56.4105 49.1498 54.8205 50.2698 52.8605C51.3498 50.9805 50.7998 48.9905 50.3098 47.2305C50.1198 46.5205 49.9298 45.8605 49.8798 45.2605C49.6498 42.7405 51.1498 40.9905 52.1798 40.1005L49.8398 37.1705C48.1398 38.3005 46.4798 38.7405 44.8998 38.4905Z" fill="white"/>
<path d="M42.6178 45.9609L41.9978 44.7109L41.3878 45.9609C41.2378 46.2509 40.9578 46.4609 40.6378 46.5109L39.2578 46.7109L40.2578 47.6809C40.4878 47.9109 40.5978 48.2409 40.5478 48.5709L40.3178 49.9409L41.5478 49.2909C41.6878 49.2109 41.8578 49.1809 42.0078 49.1809C42.1678 49.1809 42.3278 49.2209 42.4778 49.2909L43.7078 49.9409L43.4678 48.5709C43.4178 48.2509 43.5178 47.9109 43.7578 47.6809L44.7578 46.7109L43.3778 46.5109C43.0378 46.4609 42.7578 46.2509 42.6178 45.9609Z" fill="white"/>
<path d="M65.3894 42.3906C65.6494 42.3906 65.8994 42.2906 66.0994 42.1006C66.4894 41.7006 66.4894 41.0706 66.0994 40.6805L63.3994 37.9805L57.9894 32.5705V18.0005C57.9894 17.4405 57.5394 17.0005 56.9894 17.0005H50.1294C49.5794 17.0005 49.1294 17.4405 49.1294 18.0005V23.7105L42.7094 17.2905C42.3194 16.9005 41.6794 16.9005 41.2894 17.2905L20.6394 37.9405C20.6194 37.9706 20.5894 38.0006 20.5594 38.0205L17.9094 40.6805C17.5094 41.0706 17.5094 41.7006 17.9094 42.1006C18.2994 42.4906 18.9294 42.4906 19.3194 42.1006L20.3094 41.1106V59.9706C20.3094 63.8506 23.4594 67.0006 27.3394 67.0006H56.6694C60.5394 67.0006 63.6894 63.8506 63.6894 59.9706V41.1106L64.6794 42.1006C64.8794 42.2906 65.1294 42.3906 65.3894 42.3906ZM54.0994 41.1506C53.9994 41.2106 51.6394 42.6506 51.8594 45.0806C51.8994 45.5006 52.0594 46.0906 52.2294 46.7006C52.7594 48.6206 53.4894 51.2606 51.9994 53.8605C50.5594 56.3706 47.3694 58.2505 42.2594 59.6105C42.1794 59.6306 42.0894 59.6405 41.9994 59.6405C41.9094 59.6405 41.8294 59.6306 41.7394 59.6105C36.6294 58.2505 33.4394 56.3706 31.9994 53.8605C30.5094 51.2606 31.2294 48.6306 31.7694 46.7006C31.9394 46.0806 32.0994 45.5006 32.1394 45.0806C32.3594 42.6406 29.9994 41.2006 29.8994 41.1406C29.6494 40.9905 29.4794 40.7405 29.4294 40.4605C29.3794 40.1805 29.4494 39.8806 29.6294 39.6605L33.2094 35.1705C33.5494 34.7405 34.1794 34.6705 34.6094 35.0105C36.1294 36.2106 37.5294 36.7106 38.7794 36.5105C40.3094 36.2605 41.1594 35.0306 41.1694 35.0205C41.5394 34.4606 42.4694 34.4606 42.8394 35.0205C42.8394 35.0306 43.7094 36.2806 45.2494 36.5205C46.4994 36.7106 47.8894 36.2006 49.3994 35.0105C49.8294 34.6705 50.4594 34.7405 50.7994 35.1705L54.3794 39.6605C54.5594 39.8906 54.6294 40.1805 54.5794 40.4705C54.5194 40.7605 54.3494 41.0105 54.0994 41.1506Z" fill="white"/>
</svg>
