<svg width="36" height="36" viewBox="0 0 36 36" fill="none" xmlns="http://www.w3.org/2000/svg">
<path fill-rule="evenodd" clip-rule="evenodd" d="M36 17.9999C36 27.941 27.9411 35.9999 18 35.9999C8.05887 35.9999 0 27.941 0 17.9999C0 8.05875 8.05887 -0.00012207 18 -0.00012207C27.9411 -0.00012207 36 8.05875 36 17.9999ZM17.64 9.35988C17.64 8.76341 17.1565 8.27988 16.56 8.27988C15.9635 8.27988 15.48 8.76341 15.48 9.35988V20.1599C15.48 20.569 15.7111 20.9429 16.077 21.1259L23.277 24.7259C23.8105 24.9926 24.4592 24.7764 24.726 24.2429C24.9927 23.7094 24.7765 23.0606 24.243 22.7939L17.64 19.4924V9.35988Z" fill="#604B33"/>
</svg>
